<svg xmlns="http://www.w3.org/2000/svg" width="1800" height="1000" viewBox="0 0 1800 1000">
<line x1="330" y1="280.0" x2="390" y2="280.0" stroke="#000000" stroke-width="4"/>
<polygon points="390,280.0 376,272.0 376,288.0" fill="#000000"/>
<rect x="280.0" y="250.0" width="160" height="34" rx="8" fill="#ffffff" stroke="#000000"/>
<text x="360.0" y="274.0" text-anchor="middle" font-size="18" font-family="PingFang SC, Microsoft YaHei, sans-serif" fill="#000000">请求</text>
<line x1="640" y1="280.0" x2="700" y2="280.0" stroke="#000000" stroke-width="4"/>
<polygon points="700,280.0 686,272.0 686,288.0" fill="#000000"/>
<rect x="590.0" y="250.0" width="160" height="34" rx="8" fill="#ffffff" stroke="#000000"/>
<text x="670.0" y="274.0" text-anchor="middle" font-size="18" font-family="PingFang SC, Microsoft YaHei, sans-serif" fill="#000000">提示信息</text>
<line x1="960" y1="280.0" x2="1020" y2="280.0" stroke="#000000" stroke-width="4"/>
<polygon points="1020,280.0 1006,272.0 1006,288.0" fill="#000000"/>
<rect x="910.0" y="250.0" width="160" height="34" rx="8" fill="#ffffff" stroke="#000000"/>
<text x="990.0" y="274.0" text-anchor="middle" font-size="18" font-family="PingFang SC, Microsoft YaHei, sans-serif" fill="#000000">工具选择</text>
<line x1="1270" y1="280.0" x2="1330" y2="280.0" stroke="#000000" stroke-width="4"/>
<polygon points="1330,280.0 1316,272.0 1316,288.0" fill="#000000"/>
<rect x="1220.0" y="250.0" width="160" height="34" rx="8" fill="#ffffff" stroke="#000000"/>
<text x="1300.0" y="274.0" text-anchor="middle" font-size="18" font-family="PingFang SC, Microsoft YaHei, sans-serif" fill="#000000">结构化参数</text>
<line x1="1465.0" y1="340" x2="1465.0" y2="470" stroke="#000000" stroke-width="4"/>
<polygon points="1465.0,470 1457.0,456 1473.0,456" fill="#000000"/>
<rect x="1385.0" y="375.0" width="160" height="34" rx="8" fill="#ffffff" stroke="#000000"/>
<text x="1465.0" y="399.0" text-anchor="middle" font-size="18" font-family="PingFang SC, Microsoft YaHei, sans-serif" fill="#000000">候选路线</text>
<line x1="1600" y1="530.0" x2="1020" y2="530.0" stroke="#000000" stroke-width="4"/>
<polygon points="1020,530.0 1006,522.0 1006,538.0" fill="#000000"/>
<rect x="1230.0" y="500.0" width="160" height="34" rx="8" fill="#ffffff" stroke="#000000"/>
<text x="1310.0" y="524.0" text-anchor="middle" font-size="18" font-family="PingFang SC, Microsoft YaHei, sans-serif" fill="#000000">摘要/卡片</text>
<line x1="1270" y1="530.0" x2="700" y2="530.0" stroke="#000000" stroke-width="4"/>
<polygon points="700,530.0 686,522.0 686,538.0" fill="#000000"/>
<rect x="905.0" y="500.0" width="160" height="34" rx="8" fill="#ffffff" stroke="#000000"/>
<text x="985.0" y="524.0" text-anchor="middle" font-size="18" font-family="PingFang SC, Microsoft YaHei, sans-serif" fill="#000000">流式返回</text>
<rect x="90" y="220" width="240" height="120" rx="18" fill="#ffffff" stroke="#000000" stroke-width="3"/>
<text x="210.0" y="280.0" text-anchor="middle" font-size="24" font-family="PingFang SC, Microsoft YaHei, sans-serif" fill="#000000">用户自然语言请求</text>
<rect x="390" y="220" width="250" height="120" rx="18" fill="#ffffff" stroke="#000000" stroke-width="3"/>
<text x="515.0" y="280.0" text-anchor="middle" font-size="24" font-family="PingFang SC, Microsoft YaHei, sans-serif" fill="#000000">网关与提示词构造</text>
<rect x="700" y="220" width="260" height="120" rx="18" fill="#ffffff" stroke="#000000" stroke-width="3"/>
<text x="830.0" y="262.0" text-anchor="middle" font-size="24" font-family="PingFang SC, Microsoft YaHei, sans-serif" fill="#000000">DeepSeek 模型</text>
<text x="830.0" y="298.0" text-anchor="middle" font-size="24" font-family="PingFang SC, Microsoft YaHei, sans-serif" fill="#000000">意图解析</text>
<rect x="1020" y="220" width="250" height="120" rx="18" fill="#ffffff" stroke="#000000" stroke-width="3"/>
<text x="1145.0" y="262.0" text-anchor="middle" font-size="24" font-family="PingFang SC, Microsoft YaHei, sans-serif" fill="#000000">Function Calling</text>
<text x="1145.0" y="298.0" text-anchor="middle" font-size="24" font-family="PingFang SC, Microsoft YaHei, sans-serif" fill="#000000">参数抽取</text>
<rect x="1330" y="220" width="270" height="120" rx="18" fill="#ffffff" stroke="#000000" stroke-width="3"/>
<text x="1465.0" y="280.0" text-anchor="middle" font-size="24" font-family="PingFang SC, Microsoft YaHei, sans-serif" fill="#000000">路线检索与过滤</text>
<rect x="1330" y="470" width="270" height="120" rx="18" fill="#ffffff" stroke="#000000" stroke-width="3"/>
<text x="1465.0" y="512.0" text-anchor="middle" font-size="24" font-family="PingFang SC, Microsoft YaHei, sans-serif" fill="#000000">结果重写与</text>
<text x="1465.0" y="548.0" text-anchor="middle" font-size="24" font-family="PingFang SC, Microsoft YaHei, sans-serif" fill="#000000">路线卡片封装</text>
<rect x="1020" y="470" width="250" height="120" rx="18" fill="#ffffff" stroke="#000000" stroke-width="3"/>
<text x="1145.0" y="530.0" text-anchor="middle" font-size="24" font-family="PingFang SC, Microsoft YaHei, sans-serif" fill="#000000">SSE/消息流返回</text>
<rect x="700" y="470" width="260" height="120" rx="18" fill="#ffffff" stroke="#000000" stroke-width="3"/>
<text x="830.0" y="530.0" text-anchor="middle" font-size="24" font-family="PingFang SC, Microsoft YaHei, sans-serif" fill="#000000">前端会话流展示</text>
</svg>